<?xml version="1.0" standalone="no"?> 
<!DOCTYPE svg PUBLIC "-//W3C//DTD SVG 1.1//EN" "http://www.w3.org/Graphics/SVG/1.1/DTD/svg11.dtd" >
<svg xmlns="http://www.w3.org/2000/svg">
<defs>
  <font id="custom-icons" horiz-adv-x="1699.77">
    <font-face font-family="custom-icons"
      units-per-em="1000" ascent="1000"
      descent="0" />
    <missing-glyph horiz-adv-x="0" />
    <glyph glyph-name="alert"
      unicode="&#xEA01;"
      horiz-adv-x="1166.6666666666665" d="M625 941.6666666666666L1091.6666666666665 141.6666666666669C1099.9999999999998 133.3333333333335 1099.9999999999998 125.0000000000002 1099.9999999999998 116.6666666666668S1099.9999999999998 100.0000000000001 1091.6666666666665 91.6666666666667C1083.3333333333333 83.3333333333334 1083.3333333333333 75.0000000000001 1075 75.0000000000001C1066.6666666666667 66.6666666666667 1058.3333333333333 66.6666666666667 1050 66.6666666666667H116.6666666666668C108.3333333333333 66.6666666666667 100 66.6666666666667 91.6666666666667 75.0000000000001C91.6666666666667 75.0000000000001 83.3333333333333 83.3333333333334 75 83.3333333333334C66.6666666666667 91.6666666666667 66.6666666666667 100 66.6666666666667 108.3333333333335C66.6666666666667 116.6666666666668 66.6666666666667 125 75 133.3333333333335L541.6666666666666 933.3333333333334C549.9999999999999 941.6666666666669 549.9999999999999 950.0000000000002 558.3333333333334 950.0000000000002C566.6666666666666 958.3333333333334 575 958.3333333333334 583.3333333333333 958.3333333333334C591.6666666666666 958.3333333333334 600 958.3333333333334 608.3333333333333 950C616.6666666666666 950 625 941.6666666666666 625 941.6666666666666zM208.3333333333333 158.3333333333334H966.6666666666666L583.3333333333333 816.6666666666666L208.3333333333333 158.3333333333334zM533.3333333333334 308.3333333333333H633.3333333333334V208.3333333333334H533.3333333333334V308.3333333333333zM533.3333333333334 650H633.3333333333334V408.3333333333335H533.3333333333334V650z" />
    <glyph glyph-name="all"
      unicode="&#xEA02;"
      horiz-adv-x="1000" d="M608.3333333333334 583.3333333333333C586.1111111111112 583.3333333333333 563.8888888888889 600 563.8888888888889 627.7777777777778V894.4444444444445C563.8888888888889 916.6666666666666 580.5555555555557 938.888888888889 608.3333333333334 938.888888888889H880.5555555555557C902.7777777777778 938.888888888889 925 922.2222222222222 925 894.4444444444445V627.7777777777778C925 605.5555555555555 908.3333333333334 583.3333333333334 880.5555555555557 583.3333333333334H608.3333333333334zM730.5555555555557 427.7777777777777L575.0000000000001 255.5555555555556C563.888888888889 244.4444444444445 563.888888888889 233.3333333333333 575.0000000000001 216.6666666666666L730.5555555555557 44.4444444444445C741.6666666666667 33.3333333333334 758.3333333333335 33.3333333333334 769.4444444444446 44.4444444444445L925 216.6666666666666C936.1111111111112 227.7777777777777 936.1111111111112 238.8888888888889 925 255.5555555555556L769.4444444444446 427.7777777777777C758.3333333333334 438.8888888888889 741.6666666666667 438.8888888888889 730.5555555555557 427.7777777777777zM252.7777777777778 61.1111111111112C352.7777777777779 61.1111111111112 430.5555555555557 138.8888888888889 430.5555555555557 238.8888888888889C430.5555555555557 338.8888888888889 352.777777777778 416.6666666666667 252.7777777777778 416.6666666666667S75 338.8888888888888 75 238.8888888888889C75 144.4444444444445 152.7777777777778 61.1111111111112 252.7777777777778 61.1111111111112zM97.2222222222222 877.7777777777778L236.1111111111112 955.5555555555557C247.2222222222223 961.111111111111 263.8888888888891 961.111111111111 275.0000000000001 955.5555555555557L413.8888888888891 877.7777777777778C425.0000000000001 872.2222222222222 436.1111111111112 855.5555555555555 436.1111111111112 838.8888888888889V683.3333333333333C436.1111111111112 666.6666666666666 430.5555555555557 655.5555555555555 413.8888888888891 644.4444444444443L275.0000000000001 566.6666666666667C258.3333333333334 555.5555555555555 247.2222222222223 555.5555555555555 236.1111111111112 566.6666666666667L97.2222222222222 644.4444444444443C80.5555555555556 650 75 666.6666666666666 75 683.3333333333333V838.8888888888889C75 855.5555555555555 80.5555555555556 866.6666666666666 97.2222222222222 877.7777777777778z" />
    <glyph glyph-name="arrow-left"
      unicode="&#xEA03;"
      horiz-adv-x="1333.3333333333333" d="M1333.3333333333333 583.3333333333334H316.6666666666667L616.6666666666666 883.3333333333334L500 1000L0 500L500 0L616.6666666666666 116.6666666666668L316.6666666666667 416.6666666666668H1333.3333333333333V583.3333333333334z" />
    <glyph glyph-name="arrow-right"
      unicode="&#xEA04;"
      horiz-adv-x="1333.3333333333333" d="M0 416.6666666666668H1014.1666666666666L715.8333333333333 117.5000000000001L833.3333333333333 0L1333.3333333333333 500L833.3333333333333 1000L715.8333333333333 882.5L1014.1666666666666 583.3333333333334H0z" />
    <glyph glyph-name="behance"
      unicode="&#xEA05;"
      horiz-adv-x="1400" d="M425 920C465.0000000000001 920 495.0000000000001 920 535.0000000000001 910C565 900 595 890 615 870C635 850 655 830 665 810C674.9999999999999 780 685 750 685 710C685 670 675 630 655 610C645 580 615 560 575 540C625 530 665 500 685 470C705 430 725 390 725 340C725 300 715 260 705 230.0000000000001C685 200 665 169.9999999999999 635 150C605 130.0000000000001 575 119.9999999999999 545 110C505 100 475 100 435 100H35V920H425zM405 590C435 590 464.9999999999999 600 485 610C505 620 514.9999999999999 650 514.9999999999999 680C514.9999999999999 700 505 720 505 730C495.0000000000001 740 485 750 475 760C464.9999999999999 770 445.0000000000001 770 435 770C425 770 405 770 385 770H215V580H405zM415 240C435 240 445 240 464.9999999999999 250C485 250 494.9999999999999 260 505 270C514.9999999999999 280 525 290 535 300C545 310 545 330 545 350C545 390 535 420 504.9999999999999 440C485 450 455 460 415 460H215V230L415 240zM985.0000000000002 240C1005 220 1045 200 1085 200C1115.0000000000002 200 1145 210 1175 220C1195 240 1215.0000000000002 250 1215.0000000000002 270H1355.0000000000002C1335.0000000000002 200 1295.0000000000002 150 1245.0000000000002 119.9999999999999C1195.0000000000002 89.9999999999999 1145.0000000000002 69.9999999999999 1075.0000000000002 69.9999999999999C1025.0000000000002 69.9999999999999 985.0000000000002 79.9999999999999 945.0000000000002 89.9999999999999C905.0000000000002 109.9999999999998 875.0000000000002 129.9999999999999 845.0000000000002 149.9999999999998C835.0000000000001 200 815 230 795 270C785 310 775 350 775 390C775 430.0000000000001 785 480.0000000000001 795 510.0000000000001C805 550.0000000000001 835.0000000000001 580 855 610C885.0000000000001 640 915 660 955 680C995 700.0000000000001 1035 700.0000000000001 1075 700.0000000000001C1125 700.0000000000001 1165 690 1205 670.0000000000001C1255 660 1285 630 1305 600C1325 570 1345 530 1355 490.0000000000001C1365 450 1365 400 1365 360H945C945 310 955 260 985.0000000000002 240zM1175 550C1155 570 1125 580 1085 580C1054.9999999999998 580 1035 580 1024.9999999999998 570C995 560 985.0000000000002 550 974.9999999999998 540C965 530 955 509.9999999999999 945 500C945 490.0000000000001 935.0000000000002 470 935.0000000000002 460H1205C1205 500 1185 530 1175 550zM905 860H1235V780H905V860z" />
    <glyph glyph-name="chart"
      unicode="&#xEA06;"
      horiz-adv-x="956.5217391304348" d="M21.7391304347826 478.2608695652174H226.0869565217392V21.7391304347826H21.7391304347826V478.2608695652174zM730.4347826086957 682.608695652174H934.7826086956522V21.7391304347826H730.4347826086957V682.608695652174zM378.2608695652173 986.9565217391304H582.6086956521739V21.7391304347826H378.2608695652173V986.9565217391304z" />
    <glyph glyph-name="check"
      unicode="&#xEA07;"
      horiz-adv-x="1571.4285714285716" d="M578.5714285714284 42.8571428571428C550 42.8571428571428 535.7142857142858 42.8571428571428 521.4285714285713 71.4285714285715L164.2857142857142 414.2857142857144C135.7142857142857 442.8571428571429 135.7142857142857 500.0000000000001 164.2857142857142 528.5714285714286C192.8571428571428 557.1428571428571 250 557.1428571428571 278.5714285714286 528.5714285714286L578.5714285714284 228.5714285714286L1292.857142857143 942.8571428571428C1321.4285714285713 971.4285714285714 1378.5714285714284 971.4285714285714 1407.1428571428573 942.8571428571428C1435.7142857142858 914.2857142857142 1435.7142857142858 857.1428571428571 1407.1428571428573 828.5714285714284L635.7142857142858 57.1428571428571C607.1428571428571 42.8571428571428 592.8571428571429 42.8571428571428 578.5714285714284 42.8571428571428z" />
    <glyph glyph-name="clock"
      unicode="&#xEA08;"
      horiz-adv-x="1000.2236096481679" d="M464.7461736270073 999.6822389210246C350.2933405516097 993.268172697262 248.0801934811903 952.018077074715 161.4020324940126 877.3442235154968C150.3980840183831 867.8702357904895 121.2699851123049 838.7421368844115 112.2079098970807 828.1501009185649C66.8975338209593 775.0722318008227 34.8860473464007 718.8167518933265 14.4081111457641 656.0295164735581A500.4736993862503 500.4736993862503 0 0 1 99.9093792478478 186.7670164000024C115.0912974655612 167.9367302384973 138.3937765904236 143.3985135842861 156.1060145110893 127.6281489240257C224.1304232695261 66.9004760531719 304.2768287444319 26.8861179599738 392.8380183477602 9.409258616327A507.8292799180884 507.8292799180884 0 0 1 553.8958096728827 4.054395989149A499.8087549061722 499.8087549061722 0 0 1 803.1028780915506 110.2689788688882C821.9331642530556 125.4508970866016 846.4713809072668 148.7533762114641 862.2417455675272 166.4656141321298C922.9694184383808 234.4900228905666 962.9837765315792 314.6364283654723 980.4606358752258 403.1976179688005A507.8292799180884 507.8292799180884 0 0 1 985.8154985024038 564.2554092939231A499.8087549061722 499.8087549061722 0 0 1 879.6009156226646 813.462477712591C859.2406687105374 838.7068300978586 831.760219843591 866.4226575418238 806.6335567468327 887.01828303097A508.3000370721259 508.3000370721259 0 0 1 695.2994898169343 956.2195846745008C641.1624171026074 980.5224227516932 586.3780533014788 994.2920695072938 524.473487545531 999.1173303361794C513.8226069354298 999.9176174980435 475.7501221026369 1000.3295300078262 464.7461736270073 999.6822389210246zM511.5276658094963 881.9929504116183A396.7482449584852 396.7482449584852 0 0 0 558.8976044345324 876.3438645631668C702.4785364160082 850.0991532255691 819.4028445501032 743.1195899705189 858.3579990467167 602.4808902017783C900.3730750445749 450.6028633803894 845.3533326664274 288.8389363242104 719.5434832498719 194.3932822954118C641.0447278140979 135.4309487521993 544.9514237461676 109.1862374146017 447.0927803505963 120.013651957467C292.4490552492365 137.0785987913309 162.6966146676159 247.6476853459183 121.1522958237955 397.7015281954113C79.1372198259375 549.5795550168001 134.1569622040849 711.3434820729791 259.9668116206403 805.7891361017777C315.4573111528253 847.4511442341075 378.5387697938672 872.5189626866111 447.4458482161246 880.2276110839771C467.8060951282519 882.5225522099106 492.1560089208481 883.1698432967123 511.5276658094963 881.9929504116183zM479.5750239791925 822.8776207933435C456.3313894985848 818.4642724742407 438.3837730009004 801.575859573141 432.4993085754301 778.6264483138067L431.2047264018266 773.4481196193929V491.5822736393647L432.5581532196847 486.3451003006961C434.088113970307 480.3429465867164 437.854171202608 472.0458517468032 441.5025391463996 466.5144551868611C443.209033829786 463.9252908396542 473.0432684669205 433.6791436927369 536.4777949734904 370.2446171861668C617.8010933334903 288.8624741819123 629.511177540176 277.3877685522453 634.0422151477883 274.5043809837647C644.6930957578895 267.6195576059644 653.3432584633309 265.0892379030122 666.2890801993656 265.0892379030122C676.9988054537216 265.0892379030122 682.647891302173 266.3838200766156 691.9453450944161 270.9148576842279C708.0687776202049 278.7411953701034 719.1315707400889 292.4519974814491 723.486074414937 309.8700121808414C725.3691030310874 317.284437356934 725.3691030310874 329.9360358716952 723.486074414937 337.3504610477878C722.073802952824 343.058391540494 718.307745720523 351.5320203131712 714.7770670652409 356.9457275846039C713.364795603128 359.1818240662826 684.5897645625782 388.4276122608701 630.6292257810154 442.4469956866876L548.5997916899593 524.5352744219985L548.4232577571952 649.2859202419692L548.3055684686858 774.0365660619399L546.9521416508277 779.0383608235896C545.1279576789318 785.9231842013899 539.949628984518 796.220996945963 535.6539699539246 801.575859573141A59.28597908661344 59.28597908661344 0 0 1 503.7601727678755 822.0537957737777C497.2284172556035 823.6190633109527 485.7537116259364 824.0545136784376 479.5750239791925 822.8776207933435z" />
    <glyph glyph-name="close"
      unicode="&#xEA09;"
      horiz-adv-x="1000" d="M499.9999999999999 610L869.9999999999998 980L979.9999999999995 870L609.9999999999999 500L980.0000000000002 130.0000000000001L869.9999999999998 19.9999999999999L499.9999999999999 390L129.9999999999999 19.9999999999999L19.9999999999999 130.0000000000001L389.9999999999999 500L19.9999999999999 870L129.9999999999999 980L499.9999999999999 610z" />
    <glyph glyph-name="code"
      unicode="&#xEA0A;"
      horiz-adv-x="1000" d="M338.8888888888889 700L138.8888888888889 500L338.8888888888889 300C361.1111111111112 277.7777777777777 361.1111111111112 238.8888888888889 338.8888888888889 216.6666666666666C327.7777777777779 205.5555555555556 311.1111111111111 200 300 200S266.6666666666667 211.1111111111111 255.5555555555556 222.2222222222222L16.6666666666667 461.1111111111111C5.5555555555556 472.2222222222222 0 483.3333333333333 0 500C0 516.6666666666667 5.5555555555556 527.7777777777778 16.6666666666667 538.8888888888889L255.5555555555556 777.7777777777778C277.7777777777779 800 316.6666666666667 800 338.8888888888889 777.7777777777778C361.1111111111112 755.5555555555555 361.1111111111112 722.2222222222222 338.8888888888889 700zM983.3333333333334 538.8888888888889L744.4444444444445 777.7777777777778C722.2222222222223 800 683.3333333333334 800 661.1111111111112 777.7777777777778C638.8888888888889 755.5555555555555 638.8888888888889 716.6666666666667 661.1111111111112 694.4444444444445L861.1111111111111 500L661.1111111111112 300C638.8888888888889 277.7777777777777 638.8888888888889 238.8888888888889 661.1111111111112 216.6666666666666C672.2222222222222 205.5555555555556 688.8888888888889 200 700 200C716.6666666666667 200 727.7777777777778 205.5555555555556 738.8888888888888 216.6666666666666L977.7777777777778 455.5555555555555C994.4444444444443 472.2222222222222 1000 483.3333333333333 1000 500C1000 516.6666666666667 994.4444444444443 527.7777777777778 983.3333333333334 538.8888888888889zM600 888.8888888888889C566.6666666666667 894.4444444444445 538.8888888888889 877.7777777777778 527.7777777777778 850L361.1111111111112 177.7777777777777C355.5555555555556 149.9999999999999 372.2222222222223 116.6666666666666 400 105.5555555555554C405.5555555555556 105.5555555555554 411.1111111111112 105.5555555555554 416.6666666666667 105.5555555555554C444.4444444444445 105.5555555555554 466.6666666666667 122.2222222222222 472.2222222222222 149.9999999999999L644.4444444444445 822.2222222222222C650 850 627.7777777777778 883.3333333333334 600 888.8888888888889z" />
    <glyph glyph-name="color-swatch"
      unicode="&#xEA0B;"
      horiz-adv-x="1000" d="M683.3333333333334 816.6666666666666L816.6666666666667 683.3333333333334L816.6666666666667 683.3333333333334C844.4444444444446 655.5555555555557 844.4444444444446 605.5555555555555 816.6666666666667 572.2222222222222L816.6666666666667 572.2222222222222L461.111111111111 216.6666666666666V705.5555555555555L572.2222222222223 816.6666666666666L572.2222222222223 816.6666666666666C600 850 650 850 683.3333333333334 816.6666666666666L683.3333333333334 816.6666666666666zM961.1111111111112 305.5555555555556V111.1111111111111C961.1111111111112 66.6666666666666 927.7777777777778 33.3333333333334 883.3333333333334 33.3333333333334H405.5555555555556L750 377.7777777777779H883.3333333333334C927.7777777777778 383.3333333333335 961.1111111111112 350 961.1111111111112 305.5555555555556zM38.8888888888889 211.1111111111111L38.8888888888889 211.1111111111111C38.8888888888889 211.1111111111111 38.8888888888889 211.1111111111111 38.8888888888889 211.1111111111111L38.8888888888889 883.3333333333334C38.8888888888889 927.7777777777778 72.2222222222222 961.111111111111 116.6666666666667 961.111111111111H311.1111111111111C355.5555555555556 961.111111111111 388.8888888888889 927.7777777777778 388.8888888888889 883.3333333333334V211.1111111111111C388.8888888888889 211.1111111111111 388.8888888888889 211.1111111111111 388.8888888888889 211.1111111111111C388.8888888888889 116.6666666666668 311.1111111111111 38.8888888888888 216.6666666666667 38.8888888888888C116.6666666666667 38.8888888888888 38.8888888888889 116.6666666666666 38.8888888888889 211.1111111111111zM211.111111111111 133.3333333333334C255.5555555555556 133.3333333333334 288.8888888888889 166.6666666666666 288.8888888888889 211.1111111111111S255.5555555555556 288.8888888888889 211.111111111111 288.8888888888889C166.6666666666666 288.8888888888889 133.3333333333333 255.5555555555557 133.3333333333333 211.1111111111111S166.6666666666667 133.3333333333334 211.111111111111 133.3333333333334z" />
    <glyph glyph-name="copy-duplicate"
      unicode="&#xEA0C;"
      horiz-adv-x="999.9411453122242" d="M131.8345006179743 999.8234359366724C126.1844505914896 999.2937437466894 114.4135130363134 997.057265611206 107.645223942087 995.2327702901536A147.0602083455947 147.0602083455947 0 0 1 14.7136719439703 918.133129303749C7.6511094108646 903.6548761108822 3.472426578777 890.6479901124125 1.0593843799659 875.463480666235C0.0588546877759 868.9894650108881 0 858.5721852745571 0 653.8755811900418V439.0559708080748L1.3536578188453 431.5225707727621C10.0052969218998 383.6148549231947 39.197222058737 344.5353422400093 81.8080160084751 323.7007827673474C92.5195691836855 318.462715555294 99.7586957801189 315.7553999176035 109.9994114531223 313.1069389676888C125.5959037137308 309.1048201989289 127.3615443470073 308.9871108233771 166.2644929668648 308.9871108233771C198.4580071802719 308.9871108233771 201.5773056323936 309.0459655111529 205.1085868989465 310.046495203343C216.5852510152434 313.3423577187922 225.8842916838327 318.6392796186216 233.2999823435937 326.3492437172621A59.77282090518509 59.77282090518509 0 0 1 248.9553292919782 356.3062797951858C250.4855511741511 363.7219704549467 249.9558589841681 376.6111470778648 247.8370902242364 383.6148549231948C243.599552704373 397.8576893649581 235.3010417279737 409.1577894179273 223.5301041727974 416.8088988287919C217.8800541463128 420.5167441586723 213.9367900653287 422.3412394797247 206.9330822199989 424.4600082396564L201.871579071273 426.0490848096053L171.8556883055736 426.4022129362606C145.4887881819787 426.7553410629158 141.4278147254429 426.9319051262435 138.6027897122006 427.8147254428817A28.7210876346301 28.7210876346301 0 0 0 127.008416220352 434.8184332882115A29.851097639927023 29.851097639927023 0 0 0 119.063033370608 447.001353657819L117.7093755517627 450.8269083632513V654.1698546289211C117.7093755517627 849.5085633570714 117.7682302395386 857.630510270143 118.7687599317286 861.0440821611442A27.86180919310224 27.86180919310224 0 0 0 125.8313224648344 872.9327290918721A29.851097639927023 29.851097639927023 0 0 0 138.0142428344418 880.8781119416161L141.8397975398741 882.2317697604614H345.1827438055442C540.5214525336943 882.2317697604614 548.643399446766 882.1729150726856 552.0569713377671 881.1723853804955A31.063504208110174 31.063504208110174 0 0 0 571.8321464304632 861.9269024777823C573.1858042493085 858.2190571479018 573.1858042493085 857.3950915190395 573.5389323759638 828.0854570066506L573.8920605026191 798.0695662409511L575.4811370725679 792.8903537166735C577.6587605202756 785.8866458713436 579.8363839679831 781.1782708492731 583.6030839856395 775.6459301983402C589.9005355776588 766.2291801541992 600.4943793773175 757.8718144900241 611.088223176976 753.8696957212642C619.504443528927 750.7503972691425 624.8013654287564 749.92643164028 634.6889529751045 750.2795597669353C643.9879936436937 750.5738332058148 649.6380436701784 751.8097816491083 657.3480077688188 755.3410629156612C670.5314578306162 761.2853863810252 682.3612500735684 773.9979989406156 687.48160791007 787.6522865046201C691.3071626155023 797.8341474898475 691.3660173032781 798.599258430934 691.1305985521747 836.3839679830498C690.8951798010711 868.7540462597846 690.8363251132953 870.8139603319404 689.5415219822258 877.7588134894944C680.7721735036195 925.54881996351 651.6391030545583 964.4517685833677 609.146018480372 985.2274733682538A149.96762992172327 149.96762992172327 0 0 1 567.0649167206168 998.8817609322582C561.1794479430287 999.8822906244482 550.6444588311459 999.941145312224 347.5369313165794 1000C230.180683891472 1000 133.1293037490436 999.941145312224 131.8345006179743 999.8234359366724zM440.8216114413514 690.8363251132953C435.1715614148667 690.3066329233123 423.4006238596905 688.0701547878289 416.6323347654641 686.2456594667765A147.0602083455947 147.0602083455947 0 0 1 323.7007827673475 609.1460184803719C316.6382202342417 594.6677652875051 312.4595374021542 581.6608792890353 310.046495203343 566.4763698428579C309.045965511153 560.002354187511 308.9871108233771 549.5850744511799 308.9871108233771 344.8884703666647V130.0688599846977L310.3407686422224 122.535459949385C318.9924077452769 74.6277440998175 348.184332882114 35.5482314166324 390.7951268318522 14.7136719439703C405.273380024719 7.6511094108646 418.2802660231888 3.472426578777 433.4647754693662 1.0593843799658C439.9387911247132 0.0588546877758 450.3560708610442 0 655.0526749455595 0H869.8722853275264L877.4056853628392 1.3536578188452C925.3134012124066 10.0052969218998 964.3929138955918 39.1972220587369 985.2274733682538 81.8080160084751C992.2900359013596 96.2862692013418 996.4687187334472 109.2931551998116 998.8817609322584 124.4776646459891C999.8822906244484 130.951680301336 999.9411453122242 141.368960037667 999.9411453122242 346.0655641221823V560.8851745041493L998.587487493379 568.418574539462C989.9358483903244 616.3262903890295 960.7439232534874 655.4058030722147 918.1331293037492 676.2403625448767A149.96762992172327 149.96762992172327 0 0 1 876.052027543994 689.8946501088813C870.1665587664058 690.8951798010712 859.631569654523 690.9540344888471 656.5240421399565 691.0128891766229C539.167794714849 691.0128891766228 442.1164145724208 690.954034488847 440.8216114413514 690.8363251132953zM861.3383556000236 572.1852745571184A31.781531398975936 31.781531398975936 0 0 0 880.8781119416162 552.9397916544052L882.2317697604615 549.1142369489729V345.771290683303C882.2317697604615 150.4325819551526 882.1729150726857 142.3106350420811 881.1723853804956 138.8970631510799A27.86180919310224 27.86180919310224 0 0 0 874.1098228473899 127.0084162203519A29.851097639927023 29.851097639927023 0 0 0 861.9269024777824 119.063033370608L858.1013477723501 117.7093755517627H654.75840150668C459.4196927785298 117.7093755517627 451.2977458654582 117.7682302395385 447.8841739744571 118.7687599317285A27.86180919310224 27.86180919310224 0 0 0 435.9955270437291 125.8313224648343A29.851097639927023 29.851097639927023 0 0 0 428.0501441939851 138.0142428344418L426.6964863751399 141.839797539874V345.1827438055441C426.6964863751399 540.5214525336943 426.7553410629157 548.6433994467659 427.7558707551057 552.0569713377671C431.110587958331 563.003943264081 440.5861926902478 571.3024542404803 451.6508739921135 572.891530810429C453.4753693131659 573.1858042493085 545.641810370196 573.3623683126361 656.5240421399565 573.3035136248602C850.3913836737097 573.2446589370843 858.2190571479019 573.1858042493084 861.3383556000236 572.1852745571184z" />
    <glyph glyph-name="date-time"
      unicode="&#xEA0D;"
      horiz-adv-x="1000" d="M838.8888888888889 866.6666666666666H761.1111111111111V900C761.1111111111111 933.3333333333334 733.3333333333334 961.111111111111 700 961.111111111111C666.6666666666667 961.111111111111 638.8888888888889 933.3333333333334 638.8888888888889 900V866.6666666666666H361.1111111111112V900C361.1111111111112 933.3333333333334 333.3333333333335 961.111111111111 300 961.111111111111S238.8888888888889 933.3333333333334 238.8888888888889 900V866.6666666666666H161.1111111111111C111.1111111111111 866.6666666666666 66.6666666666667 827.7777777777778 66.6666666666667 777.7777777777778V744.4444444444445C66.6666666666667 727.7777777777778 77.7777777777778 711.1111111111111 100 711.1111111111111H900C916.6666666666669 711.1111111111111 933.3333333333334 722.2222222222223 933.3333333333334 744.4444444444445V777.7777777777778C933.3333333333334 827.7777777777778 888.8888888888889 866.6666666666666 838.8888888888889 866.6666666666666zM900 622.2222222222222H100C83.3333333333333 622.2222222222222 66.6666666666667 611.1111111111111 66.6666666666667 594.4444444444445V133.3333333333333C66.6666666666667 83.3333333333333 111.1111111111111 38.8888888888888 161.1111111111111 38.8888888888888H838.8888888888889C888.8888888888889 38.8888888888888 933.3333333333334 83.3333333333333 933.3333333333334 133.3333333333333V594.4444444444445C933.3333333333334 611.1111111111111 916.6666666666669 622.2222222222222 900 622.2222222222222zM500 100C372.2222222222223 100 272.2222222222223 205.5555555555556 272.2222222222223 327.7777777777779C272.2222222222223 455.5555555555555 377.7777777777779 555.5555555555555 500 555.5555555555555S727.7777777777778 450 727.7777777777778 327.7777777777779C727.7777777777778 205.5555555555556 627.7777777777778 100 500 100zM522.2222222222223 338.8888888888888V438.8888888888889C522.2222222222223 444.4444444444445 516.6666666666667 455.5555555555555 505.5555555555555 455.5555555555555H494.4444444444445C488.8888888888889 455.5555555555555 477.7777777777778 450.0000000000001 477.7777777777778 438.8888888888889V333.3333333333333C477.7777777777778 327.7777777777779 477.7777777777778 322.2222222222223 483.3333333333333 316.6666666666667L555.5555555555555 244.4444444444444C561.1111111111111 238.8888888888888 572.2222222222223 238.8888888888888 577.7777777777778 244.4444444444444L588.8888888888889 255.5555555555555C594.4444444444445 261.111111111111 594.4444444444445 272.2222222222222 588.8888888888889 277.7777777777777L522.2222222222223 338.8888888888888z" />
    <glyph glyph-name="dou"
      unicode="&#xEA0E;"
      horiz-adv-x="1000" d="M0 500C0 223.8576250846032 223.8576250846032 0 500 0C776.1423749153968 0 1000 223.8576250846032 1000 500C1000 776.1423749153968 776.1423749153968 1000 500 1000C223.8576250846032 1000 0 776.1423749153968 0 500zM508.3333333333333 375C433.3333333333333 375 383.3333333333333 429.1666666666668 383.3333333333333 500C383.3333333333333 570.8333333333333 437.5 625 508.3333333333333 625C583.3333333333333 625 633.3333333333333 570.8333333333333 633.3333333333333 500C633.3333333333333 425 583.3333333333333 375 508.3333333333333 375zM508.3333333333333 570.8333333333333C470.8333333333333 570.8333333333333 441.6666666666667 541.6666666666667 441.6666666666667 495.8333333333333C441.6666666666667 454.1666666666666 470.8333333333333 425 508.3333333333333 425C549.9999999999999 425 574.9999999999999 454.1666666666666 574.9999999999999 500C579.1666666666666 541.6666666666667 549.9999999999999 570.8333333333333 508.3333333333333 570.8333333333333zM166.6666666666667 625C204.1666666666667 625 241.6666666666667 629.1666666666667 279.1666666666667 625C337.5 616.6666666666667 370.8333333333333 575 375 512.5C379.1666666666667 445.8333333333335 345.8333333333335 400.0000000000001 287.5 387.5000000000001C250 375 208.3333333333333 379.1666666666668 166.6666666666667 375C166.6666666666667 462.5 166.6666666666667 541.6666666666667 166.6666666666667 625zM220.8333333333333 570.8333333333333C220.8333333333333 525 220.8333333333333 475 220.8333333333333 429.1666666666667C254.1666666666667 429.1666666666667 283.3333333333333 429.1666666666667 304.1666666666667 458.3333333333333C320.8333333333333 483.3333333333333 320.8333333333333 516.6666666666666 304.1666666666667 537.5C283.3333333333333 575 254.1666666666667 575 220.8333333333333 570.8333333333333zM645.8333333333333 625C662.5 625 683.3333333333333 625 700 625C700 616.6666666666667 700 608.3333333333333 700 604.1666666666667C700 562.5 700 516.6666666666667 704.1666666666667 475C704.1666666666667 458.3333333333334 712.5 441.6666666666667 733.3333333333334 433.3333333333335C766.6666666666667 420.8333333333335 795.8333333333334 437.5 795.8333333333334 475C800.0000000000001 512.5 795.8333333333334 554.1666666666667 795.8333333333334 591.6666666666667C795.8333333333334 604.1666666666667 795.8333333333334 616.6666666666666 795.8333333333334 629.1666666666667C812.5 629.1666666666667 829.1666666666667 629.1666666666667 841.6666666666667 629.1666666666667C845.8333333333335 629.1666666666667 850 620.8333333333334 850 616.6666666666666C850 570.8333333333333 850 520.8333333333334 850 475C850 416.6666666666667 812.5000000000001 379.1666666666667 758.3333333333334 379.1666666666667C695.8333333333334 375 650.0000000000001 408.3333333333333 645.8333333333335 466.6666666666666C641.6666666666666 516.6666666666667 645.8333333333333 570.8333333333333 645.8333333333333 625z" />
    <glyph glyph-name="download"
      unicode="&#xEA0F;"
      horiz-adv-x="1000" d="M946.875 368.75V87.5C946.875 56.25 921.8749999999998 37.5 896.8749999999999 37.5H103.125C71.875 37.5 53.125 62.5 53.125 87.5V368.75C53.125 400 78.125 418.7500000000001 103.125 418.7500000000001C134.375 418.7500000000001 153.125 393.75 153.125 368.75V137.5H840.625V368.7499999999999C840.625 399.9999999999999 865.625 418.75 890.625 418.75C921.875 418.75 946.875 393.75 946.875 368.75zM459.375 300C471.8750000000001 287.5000000000001 484.3750000000001 287.5000000000001 496.875 287.5000000000001C509.375 287.5000000000001 521.875 293.7500000000001 534.375 300L740.6249999999999 512.5C759.375 531.25 759.375 568.7500000000001 740.6249999999999 587.5C721.8749999999999 606.25 684.3749999999999 606.25 665.625 587.5L546.875 468.75V918.75C546.875 950 521.875 968.75 496.875 968.75C465.625 968.75 446.875 943.75 446.875 918.75V468.75L328.125 587.5C309.375 606.25 278.125 606.25 253.125 587.5C234.375 568.75 234.375 537.5 253.125 512.5L459.375 300z" />
    <glyph glyph-name="dribbble"
      unicode="&#xEA10;"
      horiz-adv-x="1000" d="M500.0000000000001 978.5714285714286C235.7142857142858 978.5714285714286 21.4285714285714 764.2857142857142 21.4285714285714 500C21.4285714285714 235.7142857142858 235.7142857142858 21.4285714285714 500.0000000000001 21.4285714285714C764.2857142857142 21.4285714285714 978.5714285714286 235.7142857142858 978.5714285714286 500.0000000000001S764.2857142857142 978.5714285714286 500.0000000000001 978.5714285714286zM557.1428571428571 664.2857142857142C500.0000000000001 764.2857142857142 442.857142857143 850 421.4285714285716 878.5714285714286C450.0000000000001 885.7142857142857 471.4285714285714 885.7142857142857 500.0000000000001 885.7142857142857C592.8571428571429 885.7142857142857 685.7142857142857 850 750 792.8571428571429C735.7142857142858 771.4285714285714 678.5714285714286 714.2857142857142 557.1428571428571 664.2857142857142zM464.2857142857143 635.7142857142858C307.1428571428573 592.8571428571429 164.2857142857144 592.8571428571429 121.4285714285715 592.8571428571429C150.0000000000001 707.1428571428571 228.5714285714287 800 328.5714285714287 850C342.857142857143 821.4285714285714 407.1428571428573 735.7142857142858 464.2857142857143 635.7142857142858zM600 592.8571428571429C721.4285714285714 642.8571428571429 785.7142857142858 707.1428571428571 807.1428571428572 735.7142857142858C857.1428571428571 671.4285714285713 885.7142857142858 600 885.7142857142858 514.2857142857142C850 521.4285714285713 735.7142857142858 535.7142857142857 621.4285714285714 528.5714285714284C621.4285714285714 528.5714285714284 621.4285714285714 528.5714285714284 621.4285714285714 535.7142857142857C621.4285714285714 535.7142857142857 621.4285714285714 542.8571428571428 614.2857142857143 542.8571428571428C614.2857142857143 557.1428571428571 607.1428571428571 571.4285714285714 600 592.8571428571429zM107.1428571428571 500L107.1428571428571 500C150.0000000000001 500 321.4285714285716 507.1428571428571 500.0000000000001 557.1428571428571C507.1428571428572 542.8571428571429 514.2857142857143 521.4285714285713 521.4285714285714 507.1428571428571C521.4285714285714 507.1428571428571 514.2857142857143 507.1428571428571 514.2857142857143 507.1428571428571L514.2857142857143 507.1428571428571C328.5714285714287 450 221.4285714285716 292.8571428571428 192.857142857143 250C142.857142857143 314.2857142857144 107.1428571428571 407.1428571428571 107.1428571428571 500zM728.5714285714286 185.7142857142857C721.4285714285714 228.5714285714286 700 328.5714285714286 657.1428571428571 442.8571428571428C764.2857142857142 457.1428571428571 857.1428571428571 435.7142857142857 885.7142857142858 428.5714285714286C864.2857142857143 328.5714285714286 807.1428571428572 242.8571428571429 728.5714285714286 185.7142857142857zM264.2857142857144 185.7142857142857C285.7142857142858 221.4285714285713 364.2857142857144 350 564.2857142857143 421.4285714285715C614.2857142857143 292.8571428571428 635.7142857142858 178.5714285714286 642.8571428571429 135.7142857142857C600 114.2857142857142 550 107.1428571428571 500.0000000000001 107.1428571428571C414.2857142857144 107.1428571428571 328.5714285714287 135.7142857142857 264.2857142857144 185.7142857142857zM571.4285714285714 428.5714285714286L571.4285714285714 428.5714285714286L571.4285714285714 428.5714285714286L571.4285714285714 428.5714285714286z" />
    <glyph glyph-name="ellipsis"
      unicode="&#xEA11;"
      horiz-adv-x="3571.4285714285716" d="M435.7142857142858 100C321.4285714285715 100 235.7142857142858 142.8571428571429 150.0000000000001 214.2857142857142C78.5714285714287 285.7142857142857 35.7142857142858 385.7142857142857 35.7142857142858 485.7142857142857C35.7142857142858 585.7142857142857 78.5714285714287 685.7142857142857 150.0000000000001 757.1428571428571C235.7142857142858 842.8571428571429 321.4285714285715 871.4285714285714 435.7142857142858 871.4285714285714C535.7142857142858 871.4285714285714 635.7142857142857 828.5714285714286 707.1428571428571 757.1428571428571C778.5714285714286 685.7142857142857 821.4285714285714 585.7142857142857 821.4285714285714 485.7142857142857C821.4285714285714 414.2857142857144 807.1428571428571 342.8571428571429 764.2857142857142 285.7142857142857C735.7142857142856 228.5714285714286 678.5714285714286 185.7142857142857 621.4285714285713 142.8571428571429C564.2857142857143 114.2857142857142 507.1428571428572 100 435.7142857142858 100zM1792.8571428571431 100C1678.5714285714287 100 1592.8571428571431 142.8571428571429 1521.4285714285716 214.2857142857142C1435.714285714286 285.7142857142857 1407.142857142857 385.7142857142857 1407.142857142857 485.7142857142857C1407.142857142857 585.7142857142857 1450.0000000000002 685.7142857142857 1521.4285714285716 757.1428571428571C1592.8571428571431 828.5714285714286 1692.857142857143 871.4285714285714 1792.8571428571431 871.4285714285714C1892.857142857143 871.4285714285714 1992.857142857143 828.5714285714286 2064.2857142857147 757.1428571428571C2135.714285714286 685.7142857142857 2178.571428571429 600 2178.571428571429 485.7142857142857C2178.571428571429 414.2857142857144 2164.2857142857147 342.8571428571429 2121.4285714285716 285.7142857142857C2092.857142857143 228.5714285714286 2035.7142857142856 185.7142857142857 1978.571428571429 142.8571428571429C1921.428571428571 114.2857142857142 1864.285714285715 100 1792.8571428571431 100zM3150.0000000000005 100C3035.714285714286 100 2950.0000000000005 142.8571428571429 2878.571428571429 214.2857142857142C2807.142857142858 285.7142857142857 2764.2857142857147 385.7142857142857 2764.2857142857147 485.7142857142857C2764.2857142857147 585.7142857142857 2807.142857142858 685.7142857142857 2878.571428571429 757.1428571428571C2950.0000000000005 828.5714285714286 3050.0000000000005 871.4285714285714 3150.0000000000005 871.4285714285714C3250 871.4285714285714 3350 828.5714285714286 3421.4285714285716 757.1428571428571C3492.857142857143 685.7142857142857 3535.714285714286 585.7142857142857 3535.714285714286 485.7142857142857C3535.714285714286 414.2857142857144 3521.4285714285716 342.8571428571429 3478.571428571429 285.7142857142857C3450.0000000000005 228.5714285714286 3392.857142857143 185.7142857142857 3335.7142857142862 142.8571428571429C3292.857142857143 114.2857142857142 3221.4285714285716 100 3150.0000000000005 100z" />
    <glyph glyph-name="facebook-f"
      unicode="&#xEA12;"
      horiz-adv-x="550" d="M440 835H535V995C490 1000 444.9999999999999 1000 400.0000000000001 1000C260 1000 170 915 170 765V635H15V455H170V0H355V455H510L535 635H355V745C355 800 365 835 440 835z" />
    <glyph glyph-name="facebook"
      unicode="&#xEA13;"
      horiz-adv-x="1000" d="M503.5714285714286 978.5714285714286C239.2857142857143 978.5714285714286 25 764.2857142857142 25 500C25 264.2857142857142 196.4285714285714 64.2857142857143 425 28.5714285714286V364.2857142857142H310.7142857142859V500H432.1428571428572V607.1428571428571C432.1428571428572 728.5714285714286 503.5714285714286 792.8571428571429 610.7142857142857 792.8571428571429C660.7142857142857 792.8571428571429 717.8571428571429 785.7142857142858 717.8571428571429 785.7142857142858V671.4285714285714H653.5714285714286C596.4285714285714 664.2857142857142 575 628.5714285714286 575 592.8571428571429V500H703.5714285714287L689.2857142857142 364.2857142857142H575V28.5714285714284C803.5714285714286 64.2857142857141 975 264.2857142857142 975 499.9999999999999C982.1428571428572 764.2857142857142 767.8571428571428 978.5714285714286 503.5714285714286 978.5714285714286z" />
    <glyph glyph-name="file"
      unicode="&#xEA14;"
      horiz-adv-x="900" d="M850 0H50C37.5 0 25 5.0000000000001 15 15C5 25 0 37.5 0 50V950C0 962.5 5 975 15 985C25 995 37.5 1000 50 1000H850C862.5 1000 875 995 885 985C894.9999999999999 975 900 962.5 900 950V50C900 37.5 894.9999999999999 25 885 15S862.5 0 850 0zM800 100V900H100V100H800zM200 800H400V600H200V800zM200 500H700V400H200V500zM200 300H700V200H200V300zM500 750H700V650H500V750z" />
    <glyph glyph-name="github"
      unicode="&#xEA15;"
      horiz-adv-x="1000" d="M496.4285714285714 978.5714285714286C232.1428571428571 978.5714285714286 25 764.2857142857142 25 507.1428571428572C25 300 160.7142857142857 121.4285714285713 346.4285714285715 57.1428571428571C367.8571428571429 50 382.1428571428571 64.2857142857143 382.1428571428571 78.5714285714287C382.1428571428571 92.8571428571429 382.1428571428571 121.4285714285715 382.1428571428571 157.1428571428572C246.4285714285715 128.5714285714286 225 221.4285714285716 225 221.4285714285716C203.5714285714286 278.5714285714288 175 292.8571428571429 175 292.8571428571429C132.1428571428571 321.4285714285716 175 321.4285714285716 175 321.4285714285716C225 321.4285714285716 246.4285714285714 271.4285714285716 246.4285714285714 271.4285714285716C282.1428571428571 192.8571428571428 353.5714285714286 214.2857142857142 382.1428571428571 228.5714285714286C389.2857142857143 257.1428571428571 396.4285714285715 278.5714285714285 410.7142857142858 292.8571428571428C303.5714285714286 307.142857142857 196.4285714285715 342.8571428571428 196.4285714285715 528.5714285714284C196.4285714285715 578.5714285714286 217.8571428571429 621.4285714285713 246.4285714285715 657.1428571428571C239.2857142857143 664.2857142857142 225 714.2857142857142 246.4285714285714 778.5714285714286C246.4285714285714 778.5714285714286 289.2857142857143 792.8571428571429 375 728.5714285714286C417.8571428571429 742.8571428571429 460.7142857142857 742.8571428571429 496.4285714285714 750C539.2857142857143 750 575 742.8571428571429 617.8571428571429 735.7142857142858C710.7142857142858 800 746.4285714285714 785.7142857142858 746.4285714285714 785.7142857142858C775.0000000000001 721.4285714285714 753.5714285714286 671.4285714285714 753.5714285714286 657.1428571428571C782.1428571428572 621.4285714285714 803.5714285714286 578.5714285714286 803.5714285714286 528.5714285714286C803.5714285714286 342.8571428571429 689.2857142857142 307.1428571428572 589.2857142857142 292.8571428571429C603.5714285714284 278.5714285714288 617.8571428571429 250.0000000000001 617.8571428571429 207.1428571428572C617.8571428571429 142.857142857143 617.8571428571429 92.857142857143 617.8571428571429 78.5714285714287C617.8571428571429 64.2857142857145 625 50 653.5714285714286 57.1428571428571C839.2857142857142 121.4285714285715 975 300 975 507.1428571428572C975 764.2857142857142 760.7142857142857 978.5714285714286 496.4285714285714 978.5714285714286z" />
    <glyph glyph-name="google"
      unicode="&#xEA16;"
      horiz-adv-x="1000" d="M970.8333333333331 591.6666666666667H512.5000000000001V400H779.1666666666666C754.1666666666667 275.0000000000001 645.8333333333334 208.3333333333334 512.5000000000001 208.3333333333334C345.8333333333335 208.3333333333334 220.8333333333334 341.6666666666667 220.8333333333334 500C220.8333333333334 666.6666666666667 345.8333333333335 791.6666666666667 512.5000000000001 791.6666666666667C579.1666666666667 791.6666666666667 645.8333333333334 766.6666666666667 695.8333333333334 725L837.5 866.6666666666667C745.8333333333335 950 637.5000000000001 1000 512.5000000000001 1000C237.5000000000001 1000 12.5000000000001 775 12.5000000000001 500S237.5000000000001 0 512.5000000000001 0C762.5000000000001 0 987.4999999999998 183.3333333333334 987.4999999999998 500C987.4999999999998 533.3333333333334 979.1666666666669 558.3333333333334 970.8333333333331 591.6666666666667z" />
    <glyph glyph-name="image"
      unicode="&#xEA17;"
      horiz-adv-x="1000" d="M297.7716796875 765.625C245.9943359375 765.625 204.0216796875 723.65234375 204.0216796875 671.875S245.9943359375 578.125 297.7716796875 578.125S391.5216796875 620.09765625 391.5216796875 671.875S349.5294921875 765.625 297.7716796875 765.625zM874.1388671875 937.5H124.1388671875001C56.8537109375 937.5 0.87890625 881.54296875 0.87890625 812.5V187.5C0.87890625 118.45703125 56.8359375 62.5 124.12109375 62.5H874.12109375C943.1640625000002 62.5 999.12109375 118.45703125 999.12109375 187.5V812.5C999.1388671875 881.54296875 944.8419921875 937.5 874.1388671875 937.5zM905.3888671875 200.5859375L638.2013671875 563.671875C633.3185546875 572.65625 622.1857421875 578.125 610.2716796875 578.125C598.3322265625 578.125 587.1857421875 572.71875 580.5646484375 563.712890625L372.3615234375002 282.267578125L299.9201171875002 372.3066406250001C293.1994140625002 380.6640625000001 282.4708984375002 385.6054687500001 271.0724609375 385.6054687500001C259.6623046875 385.6054687500001 248.9435546875002 380.6660156250001 242.2052734375002 372.3066406250001L94.7052734375 189.0839843750001C94.7052734375 189.1412109375 94.7052734375 189.0267578125001 94.7052734375 189.0839843750001L94.6271484375 812.5C94.6271484375 829.73046875 108.6466796875 843.75 125.8771484375 843.75H875.8771484375C893.1076171875 843.75 907.1271484375 829.73046875 907.1271484375 812.5V200.5859375z" />
    <glyph glyph-name="instagram"
      unicode="&#xEA18;"
      horiz-adv-x="999.1680532445923" d="M499.5840266222962 757.9034941763728A257.07154742096503 257.07154742096503 0 1 1 755.8236272878537 500.8319467554077A256.2396006655574 256.2396006655574 0 0 1 499.5840266222962 757.9034941763728zM499.5840266222962 334.4425956738769A166.38935108153078 166.38935108153078 0 1 0 665.973377703827 500.8319467554077A166.38935108153078 166.38935108153078 0 0 0 499.5840266222962 334.4425956738769zM765.8069883527453 707.1547420965059A59.90016638935108 59.90016638935108 0 1 1 705.9068219633943 767.0549084858569A59.90016638935108 59.90016638935108 0 0 1 765.8069883527453 707.1547420965059zM972.9617304492511 827.7870216306156A254.57570715474205 254.57570715474205 0 0 1 826.5391014975041 973.377703826955A353.57737104825287 353.57737104825287 0 0 1 705.0748752079867 1000C651.8302828618969 1000 635.1913477537437 1000 499.5840266222962 1000S346.5058236272879 1000 294.0931780366057 1000A357.73710482529106 357.73710482529106 0 0 1 172.6289517470882 973.377703826955A249.58402662229614 249.58402662229614 0 0 1 27.0382695507488 827.7870216306156A357.73710482529106 357.73710482529106 0 0 1 0.4159733777039 706.3227953410982C0.4159733777039 653.0782029950083 0.4159733777039 636.4392678868553 0.4159733777039 500.8319467554077S0.4159733777039 347.7537437603994 0.4159733777039 295.3410981697172A353.57737104825287 353.57737104825287 0 0 1 27.0382695507488 173.8768718801997A254.57570715474205 254.57570715474205 0 0 1 172.6289517470882 27.4542429284527A381.0316139767055 381.0316139767055 0 0 1 294.0931780366057 2.495840266223C347.3377703826956 2.495840266223 363.9767054908487 2.495840266223 499.5840266222962 2.495840266223S652.6622296173045 2.495840266223 705.9068219633943 2.495840266223A374.37603993344425 374.37603993344425 0 0 1 826.5391014975041 25.7903494176372A253.7437603993344 253.7437603993344 0 0 1 972.9617304492511 168.0532445923461A374.37603993344425 374.37603993344425 0 0 1 998.7520798668884 292.8452579034943C998.7520798668884 346.9217970049918 998.7520798668884 363.5607321131447 998.7520798668884 499.1680532445924S998.7520798668884 651.414309484193 998.7520798668884 704.658901830283A363.5607321131447 363.5607321131447 0 0 1 972.9617304492511 827.7870216306156zM905.5740432612312 298.6688851913479A297.8369384359401 297.8369384359401 0 0 0 888.1031613976704 205.4908485856905A166.38935108153078 166.38935108153078 0 0 0 793.2612312811978 110.6489184692179A297.8369384359401 297.8369384359401 0 0 0 700.0831946755404 93.1780366056571C647.6705490848583 93.1780366056571 632.6955074875204 93.1780366056571 497.9201331114807 93.1780366056571S349.0016638935107 93.1780366056571 294.9251247920131 93.1780366056571A288.6855241264559 288.6855241264559 0 0 0 202.5790349417636 110.6489184692179A166.38935108153078 166.38935108153078 0 0 0 106.9051580698836 205.4908485856905A292.84525790349414 292.84525790349414 0 0 0 89.4342762063229 297.8369384359401C89.4342762063229 351.0815307820299 89.4342762063229 365.2246256239601 89.4342762063229 500.8319467554075S89.4342762063229 649.7504159733776 89.4342762063229 702.9950083194674A298.6688851913477 298.6688851913477 0 0 0 106.9051580698836 797.0049916805323A166.38935108153078 166.38935108153078 0 0 0 202.5790349417638 891.846921797005A288.6855241264559 288.6855241264559 0 0 0 294.9251247920134 909.3178036605656C347.3377703826956 909.3178036605656 362.3128119800333 909.3178036605656 497.9201331114809 909.3178036605656S646.8386023294511 909.3178036605656 700.0831946755409 909.3178036605656A297.8369384359401 297.8369384359401 0 0 0 793.2612312811982 891.846921797005A166.38935108153078 166.38935108153078 0 0 0 888.1031613976706 797.0049916805325A292.84525790349414 292.84525790349414 0 0 0 905.5740432612316 704.658901830283C905.5740432612316 651.414309484193 905.5740432612316 636.4392678868553 905.5740432612316 501.6638935108153S905.5740432612316 351.9134775374377 905.5740432612316 298.6688851913479z" />
    <glyph glyph-name="lightbulbs"
      unicode="&#xEA19;"
      horiz-adv-x="700" d="M200 100H500V0H200V100zM595 415C645 475 700 540 700 650C700 845 545 1000 350 1000S0 845 0 650C0 535 55 475 105 415C125 395 140 370 160 350C165 340 180 300 190 255L200 150C335 150 365 150 500 150L509.9999999999999 250C519.9999999999999 295 530 335 540 345C560 370 575 395 595 415zM459.9999999999999 405C440 375 420 300 410 250H290C280 300 260 375 240 405C220 435 200 460 180 480C130 535 100 575 100 650C100 790 210 900 350 900S600 790 600 650C600 575 570 535 520 480C500 455 480 435 459.9999999999999 405z" />
    <glyph glyph-name="like"
      unicode="&#xEA1A;"
      horiz-adv-x="1083.3333333333333" d="M668.75 631.25H979.1666666666666C1004.1666666666666 631.25 1029.1666666666665 620.8333333333334 1047.9166666666665 602.0833333333335C1066.6666666666665 583.3333333333335 1077.0833333333333 558.3333333333334 1077.0833333333333 533.3333333333334V431.2500000000001C1077.0833333333333 418.7500000000001 1074.9999999999998 406.2500000000001 1070.8333333333333 393.7500000000001L920.8333333333331 29.1666666666669C916.6666666666666 20.8333333333335 910.4166666666666 12.5000000000002 902.0833333333331 6.2500000000001C893.7499999999999 2e-13 885.4166666666666 -2.0833333333331 875 -2.0833333333331H56.25C41.6666666666667 0 31.25 4.1666666666667 20.8333333333333 14.5833333333335C12.5 22.9166666666667 6.25 35.4166666666667 6.25 47.9166666666669V535.4166666666667C6.25 547.9166666666667 10.4166666666667 560.4166666666667 20.8333333333333 568.75C31.25 579.1666666666667 41.6666666666667 583.3333333333334 56.25 583.3333333333334H225C233.3333333333334 583.3333333333334 239.5833333333333 585.4166666666667 247.9166666666667 589.5833333333334C254.1666666666667 593.75 260.4166666666667 597.9166666666667 264.5833333333333 604.1666666666667L529.1666666666666 979.1666666666666C533.3333333333333 983.3333333333334 537.4999999999999 987.5 543.7499999999999 989.5833333333334C549.9999999999999 991.6666666666666 556.25 989.5833333333334 560.4166666666666 987.5L647.9166666666666 943.75C672.9166666666665 931.25 691.6666666666665 910.4166666666666 704.1666666666665 885.4166666666666C716.6666666666666 860.4166666666666 718.75 831.25 710.4166666666665 804.1666666666666L668.75 631.25zM297.9166666666667 506.2500000000001V97.9166666666667H839.5833333333333L979.1666666666666 433.3333333333335V535.4166666666667H668.75C654.1666666666666 535.4166666666667 639.5833333333334 539.5833333333335 625 545.8333333333335C612.4999999999999 552.0833333333335 600 562.5000000000001 591.6666666666666 572.9166666666667C583.3333333333333 585.4166666666667 577.0833333333333 597.9166666666667 572.9166666666666 612.5C570.8333333333333 627.0833333333334 570.8333333333333 641.6666666666667 572.9166666666666 656.2500000000001L616.6666666666666 829.1666666666667C618.75 835.4166666666667 616.6666666666666 839.5833333333335 614.5833333333333 845.8333333333335C614.5833333333333 850 610.4166666666666 854.1666666666667 604.1666666666666 856.25L572.9166666666666 872.9166666666666L343.75 547.9166666666667C331.25 531.25 316.6666666666667 516.6666666666667 297.9166666666667 506.2500000000001zM202.0833333333333 485.4166666666667H104.1666666666667V95.8333333333334H202.0833333333333V485.4166666666667z" />
    <glyph glyph-name="linkedin"
      unicode="&#xEA1B;"
      horiz-adv-x="1058.8235294117646" d="M0 882.3529411764706C0 917.6470588235294 11.7647058823529 941.1764705882352 35.2941176470588 964.7058823529412C58.8235294117647 988.235294117647 88.2352941176471 1000 129.4117647058824 1000C164.7058823529412 1000 200 988.235294117647 217.6470588235294 970.5882352941176C241.1764705882353 947.0588235294118 252.9411764705882 917.6470588235294 252.9411764705882 882.3529411764706C252.9411764705882 852.9411764705883 241.1764705882353 823.5294117647059 217.6470588235294 800C194.1176470588235 776.4705882352941 164.7058823529412 764.7058823529412 129.4117647058824 764.7058823529412H129.4117647058824C88.2352941176471 764.7058823529412 58.8235294117647 776.4705882352941 35.2941176470588 800S0 852.9411764705883 0 882.3529411764706zM11.7647058823529 0V676.4705882352941H241.1764705882353V0H11.7647058823529zM364.7058823529412 0H594.1176470588234V376.4705882352942C594.1176470588234 400.0000000000001 594.1176470588234 417.6470588235294 599.9999999999999 429.4117647058825C611.7647058823528 452.9411764705883 623.5294117647059 470.5882352941177 641.1764705882351 488.2352941176471C658.8235294117646 505.8823529411766 682.3529411764704 511.764705882353 711.7647058823528 511.764705882353C788.235294117647 511.764705882353 823.5294117647057 458.8235294117648 823.5294117647057 358.8235294117649V0H1058.8235294117646V388.2352941176471C1058.8235294117646 488.235294117647 1035.2941176470588 564.7058823529412 988.235294117647 617.6470588235295C941.1764705882352 670.5882352941177 876.4705882352941 694.1176470588235 800 694.1176470588235C711.764705882353 694.1176470588235 641.1764705882354 658.8235294117648 594.1176470588235 582.3529411764706V582.3529411764706H594.1176470588235L594.1176470588235 582.3529411764706V676.4705882352941H364.7058823529412C364.7058823529412 652.9411764705883 364.7058823529412 588.2352941176471 364.7058823529412 476.4705882352941C370.5882352941176 358.8235294117648 364.7058823529412 205.8823529411765 364.7058823529412 0z" />
    <glyph glyph-name="mail"
      unicode="&#xEA1C;"
      horiz-adv-x="1000" d="M0 750C0 819.04296875 55.95703125 875 125 875H875C943.9453125 875 1000 819.04296875 1000 750V250C1000 181.0546875 943.9453125 125 875 125H125C55.95703125 125 0 181.0546875 0 250V750zM93.75 750V706.8359375L430.6640625 430.2734375C470.8984375 397.0703125 529.1015625 397.0703125 569.3359375 430.2734375L906.25 706.8359375V751.7578125C906.25 767.1875 892.1875 783.0078125 875 783.0078125H125C107.734375 783.0078125 93.75 767.1875 93.75 751.7578125L93.75 750zM93.75 585.546875V250C93.75 232.8125 107.734375 218.75 125 218.75H875C892.1875 218.75 906.25 232.8125 906.25 250V585.546875L628.90625 357.8125C553.90625 296.2890625 446.09375 296.2890625 369.3359375 357.8125L93.75 585.546875z" />
    <glyph glyph-name="phone"
      unicode="&#xEA1D;"
      horiz-adv-x="1000" d="M762.5 483.3333333333334C745.8333333333334 500 712.5 500 695.8333333333333 483.3333333333334L620.8333333333333 408.3333333333335C579.1666666666666 416.6666666666668 512.5 441.6666666666667 470.8333333333333 483.3333333333334S404.1666666666667 591.6666666666667 395.8333333333333 633.3333333333333L470.8333333333334 708.3333333333333C487.5000000000001 725 487.5000000000001 758.3333333333333 470.8333333333334 775L279.1666666666667 975C262.5 991.6666666666666 229.1666666666668 991.6666666666666 212.5 975L79.1666666666667 841.6666666666667C62.5 825 45.8333333333333 800 45.8333333333333 766.6666666666667C45.8333333333333 700 62.5 458.3333333333334 254.1666666666667 266.6666666666667C445.8333333333333 74.9999999999999 687.5 58.3333333333334 754.1666666666665 58.3333333333334C754.1666666666665 58.3333333333334 754.1666666666665 58.3333333333334 754.1666666666665 58.3333333333334C779.1666666666666 58.3333333333334 804.1666666666665 66.6666666666666 820.8333333333333 83.3333333333334L954.1666666666666 216.6666666666666C970.8333333333331 233.3333333333333 970.8333333333331 266.6666666666667 954.1666666666666 283.3333333333335L762.5 483.3333333333334zM762.5 158.3333333333334C704.1666666666667 158.3333333333334 495.8333333333334 175 329.1666666666667 341.6666666666668C162.5 508.3333333333334 145.8333333333334 716.6666666666667 145.8333333333334 775.0000000000001L245.8333333333335 875L370.8333333333335 750.0000000000001L304.1666666666667 683.3333333333334C295.8333333333333 666.6666666666667 287.5 650 295.8333333333333 633.3333333333333C295.8333333333333 633.3333333333333 320.8333333333333 500 404.1666666666667 416.6666666666668C487.5 333.3333333333335 620.8333333333333 308.3333333333333 620.8333333333333 308.3333333333333C637.5 308.3333333333333 654.1666666666666 308.3333333333333 662.4999999999999 324.9999999999999L729.1666666666666 391.6666666666665L854.1666666666666 266.6666666666667L762.5 158.3333333333334z" />
    <glyph glyph-name="plus"
      unicode="&#xEA1E;"
      horiz-adv-x="1000" d="M379.4117647058824 29.4117647058824V970.5882352941176H620.5882352941176V23.5294117647059H379.4117647058824zM26.4705882352941 382.3529411764706V617.6470588235295H973.5294117647059V376.4705882352942H26.4705882352941z" />
    <glyph glyph-name="quote"
      unicode="&#xEA1F;"
      horiz-adv-x="1375" d="M37.5 12.5V275C37.5 350 50 437.5 87.5 525C112.5 612.5 162.5 700 212.5 775C262.5 875 325 937.5 400 1000L612.5 850C550 762.5 500 675 462.5 587.5C425 487.5 400 387.5 400 287.5V12.5H37.5zM762.5 12.5V275C762.5 350 775 437.5 812.5000000000001 525C837.5000000000001 612.5 887.5 700 937.5000000000002 775C987.5 875 1050 937.5 1125 1000L1337.5 850C1275 762.5 1225 675 1187.5 587.5C1150 487.5 1125 387.5 1125 287.5V12.5H762.5z" />
    <glyph glyph-name="rocket-fill"
      unicode="&#xEA20;"
      horiz-adv-x="818.1818181818181" d="M106.8181818181818 322.7272727272728C97.7272727272728 363.6363636363637 93.1818181818182 409.0909090909091 93.1818181818182 454.5454545454545C93.1818181818182 686.3636363636364 225.0000000000001 881.8181818181818 411.3636363636365 963.6363636363636C597.7272727272727 886.3636363636364 729.5454545454545 686.3636363636364 729.5454545454545 454.5454545454545C729.5454545454545 409.0909090909091 725 363.6363636363637 715.909090909091 322.7272727272728L806.8181818181818 240.909090909091C811.3636363636365 236.3636363636364 811.3636363636365 231.8181818181819 815.9090909090908 227.2727272727273C815.9090909090908 222.7272727272726 815.9090909090908 218.1818181818183 811.3636363636363 213.6363636363636L697.7272727272725 27.2727272727274C697.7272727272725 22.7272727272727 693.181818181818 22.7272727272727 688.6363636363635 18.1818181818184C684.090909090909 18.1818181818184 684.090909090909 13.6363636363637 679.5454545454545 13.6363636363637C675 13.6363636363637 670.4545454545455 13.6363636363637 670.4545454545455 13.6363636363637C665.909090909091 13.6363636363637 665.909090909091 18.1818181818184 661.3636363636365 18.1818181818184L556.8181818181818 122.7272727272729C547.7272727272727 131.818181818182 538.6363636363635 136.3636363636366 525 136.3636363636366H293.1818181818183C279.5454545454546 136.3636363636366 270.4545454545455 131.818181818182 261.3636363636365 122.7272727272729L156.8181818181819 18.1818181818184C152.2727272727273 13.6363636363637 152.2727272727273 13.6363636363637 147.7272727272728 13.6363636363637C143.1818181818182 13.6363636363637 143.1818181818182 13.6363636363637 138.6363636363637 13.6363636363637C134.0909090909091 13.6363636363637 134.0909090909091 13.6363636363637 129.5454545454546 18.1818181818184C125 18.1818181818184 125 22.7272727272729 120.4545454545455 27.2727272727274L6.8181818181818 213.6363636363638C2.2727272727273 218.1818181818184 2.2727272727273 222.7272727272729 2.2727272727273 227.2727272727275S6.8181818181818 236.3636363636365 11.3636363636364 240.9090909090911L106.8181818181818 322.7272727272728zM411.3636363636365 454.5454545454545C434.0909090909091 454.5454545454545 456.8181818181818 463.6363636363636 475 481.8181818181819S502.2727272727273 522.7272727272727 502.2727272727273 545.4545454545455C502.2727272727273 568.1818181818182 493.1818181818182 590.909090909091 475 609.0909090909091C456.8181818181818 627.2727272727273 434.0909090909091 636.3636363636364 411.3636363636365 636.3636363636364C388.6363636363637 636.3636363636364 365.909090909091 627.2727272727273 347.7272727272728 609.0909090909091C329.5454545454546 590.909090909091 320.4545454545455 568.1818181818182 320.4545454545455 545.4545454545455C320.4545454545455 522.7272727272727 329.5454545454546 500 347.7272727272728 481.8181818181819C365.909090909091 463.6363636363636 388.6363636363637 454.5454545454545 411.3636363636365 454.5454545454545z" />
    <glyph glyph-name="roket"
      unicode="&#xEA21;"
      horiz-adv-x="1000" d="M989.2857142857144 950C985.7142857142854 971.4285714285714 971.4285714285714 985.7142857142856 949.9999999999998 989.2857142857144C678.5714285714284 1010.7142857142856 485.7142857142856 878.5714285714286 364.2857142857142 714.2857142857142C299.9999999999999 735.7142857142858 228.5714285714286 728.5714285714286 160.7142857142856 692.8571428571429C96.4285714285713 657.1428571428571 46.4285714285713 596.4285714285713 10.7142857142856 525C3.5714285714285 507.1428571428571 7.142857142857 489.2857142857142 21.4285714285713 475C35.7142857142856 460.7142857142857 53.5714285714285 460.7142857142857 71.4285714285713 467.8571428571428C139.2857142857142 503.5714285714286 217.8571428571428 496.4285714285714 264.2857142857142 450L453.5714285714285 260.7142857142857L453.5714285714285 260.7142857142857C499.9999999999999 214.2857142857142 507.142857142857 139.2857142857143 471.4285714285713 67.8571428571428C464.2857142857142 49.9999999999999 467.8571428571427 32.1428571428571 478.5714285714285 17.8571428571428C485.7142857142856 10.7142857142857 496.4285714285713 3.5714285714286 510.7142857142856 3.5714285714286C517.8571428571427 3.5714285714286 524.9999999999999 3.5714285714286 528.5714285714284 7.1428571428572C599.9999999999998 42.8571428571429 660.7142857142857 96.4285714285716 696.4285714285713 157.1428571428572C732.142857142857 221.4285714285716 742.8571428571428 292.8571428571429 717.8571428571428 360.7142857142858C767.8571428571428 396.4285714285715 810.7142857142858 435.7142857142858 846.4285714285714 478.5714285714287C957.1428571428572 614.2857142857142 1007.1428571428572 771.4285714285714 989.2857142857144 950zM149.9999999999999 578.5714285714286C196.4285714285714 625 253.5714285714286 650 314.2857142857143 639.2857142857142C296.4285714285714 610.7142857142856 282.1428571428571 578.5714285714286 271.4285714285714 550C235.7142857142856 567.8571428571429 192.8571428571428 578.5714285714286 149.9999999999999 578.5714285714286zM578.5714285714284 150C578.5714285714284 192.8571428571428 571.4285714285713 235.7142857142857 549.9999999999999 271.4285714285714C582.142857142857 285.7142857142856 610.7142857142856 299.9999999999999 639.2857142857141 314.2857142857142C649.9999999999999 257.1428571428571 624.9999999999999 196.4285714285715 578.5714285714284 150zM492.8571428571428 342.8571428571429L342.8571428571428 492.8571428571429C417.8571428571428 696.4285714285714 607.142857142857 914.2857142857144 907.1428571428572 907.1428571428572C917.8571428571425 546.4285714285714 621.4285714285713 392.8571428571429 492.8571428571428 342.8571428571429zM771.4285714285713 771.4285714285714C785.7142857142857 757.1428571428571 792.8571428571429 739.2857142857142 792.8571428571429 721.4285714285713S785.7142857142858 685.7142857142857 771.4285714285713 671.4285714285713C757.1428571428571 657.1428571428571 739.2857142857143 650 721.4285714285714 650C703.5714285714286 650 685.7142857142857 657.1428571428571 671.4285714285714 671.4285714285713S650 703.5714285714286 650 721.4285714285713S657.1428571428571 757.1428571428571 671.4285714285714 771.4285714285714S703.5714285714286 792.8571428571429 721.4285714285714 792.8571428571429C739.2857142857142 789.2857142857142 757.142857142857 782.1428571428571 771.4285714285713 771.4285714285714zM167.8571428571428 325C117.8571428571428 275.0000000000001 117.8571428571428 178.5714285714286 117.8571428571428 157.1428571428572C117.8571428571428 132.1428571428572 135.7142857142856 114.2857142857143 160.7142857142856 114.2857142857143H160.7142857142856C182.1428571428571 114.2857142857143 278.5714285714285 117.857142857143 324.9999999999999 164.2857142857143C353.5714285714285 192.8571428571429 360.7142857142856 225 360.7142857142856 246.4285714285715C360.7142857142856 275.0000000000001 349.9999999999999 303.5714285714288 324.9999999999999 325C271.4285714285714 382.1428571428571 207.1428571428571 364.2857142857142 167.8571428571428 325zM264.2857142857142 225C253.5714285714286 214.2857142857142 228.5714285714286 207.1428571428571 203.5714285714285 203.5714285714286C207.1428571428571 228.5714285714286 214.2857142857142 250 224.9999999999999 260.7142857142857C232.1428571428571 267.8571428571429 239.2857142857142 271.4285714285715 246.4285714285713 271.4285714285715C253.5714285714286 271.4285714285715 257.142857142857 267.8571428571429 264.2857142857142 260.7142857142857S274.9999999999999 246.4285714285715 274.9999999999999 242.8571428571429C274.9999999999999 239.2857142857142 271.4285714285714 232.1428571428571 264.2857142857142 225z" />
    <glyph glyph-name="search"
      unicode="&#xEA22;"
      horiz-adv-x="1000" d="M986.111111111111 177.7777777777777L819.4444444444445 344.4444444444444C808.3333333333334 355.5555555555555 791.6666666666667 355.5555555555555 780.5555555555557 344.4444444444444L763.8888888888889 327.7777777777777L691.6666666666666 400C741.6666666666667 461.1111111111111 769.4444444444445 544.4444444444443 769.4444444444445 627.7777777777777C769.4444444444445 833.3333333333333 602.7777777777778 1005.5555555555557 391.6666666666668 1005.5555555555557C180.5555555555556 1000 13.8888888888889 833.3333333333333 13.8888888888889 622.2222222222222C13.8888888888889 416.6666666666667 180.5555555555556 244.4444444444445 391.6666666666668 244.4444444444445C480.5555555555556 244.4444444444445 558.3333333333334 272.2222222222222 619.4444444444445 322.2222222222223L691.6666666666666 250L675 233.3333333333333C663.8888888888889 222.2222222222222 663.8888888888889 205.5555555555556 675 194.4444444444445L841.6666666666666 27.7777777777777C880.5555555555555 -11.1111111111111 947.222222222222 -11.1111111111111 986.111111111111 27.7777777777777C1025 72.2222222222223 1025 133.3333333333334 986.111111111111 177.7777777777777zM391.6666666666668 805.5555555555555C291.6666666666668 805.5555555555555 208.3333333333334 722.2222222222222 208.3333333333334 622.2222222222222C208.3333333333334 594.4444444444445 186.1111111111111 572.2222222222222 158.3333333333334 572.2222222222222C130.5555555555556 572.2222222222222 108.3333333333334 594.4444444444445 108.3333333333334 622.2222222222222C108.3333333333334 777.7777777777778 236.1111111111111 900 386.1111111111112 900C413.8888888888889 900 436.1111111111112 877.7777777777778 436.1111111111112 850C436.1111111111112 827.7777777777778 413.8888888888889 805.5555555555555 391.6666666666668 805.5555555555555z" />
    <glyph glyph-name="service"
      unicode="&#xEA23;"
      horiz-adv-x="1000" d="M874.9999999999999 664.2857142857142C896.4285714285713 664.2857142857142 917.8571428571425 657.1428571428571 932.142857142857 642.8571428571429C946.4285714285712 628.5714285714286 953.5714285714286 607.1428571428571 953.5714285714286 585.7142857142858V421.4285714285715C953.5714285714286 400 946.4285714285714 378.5714285714286 932.142857142857 364.2857142857142C917.8571428571428 350 896.4285714285713 342.8571428571428 874.9999999999999 342.8571428571428H832.142857142857C824.9999999999999 264.2857142857142 782.1428571428571 185.7142857142856 724.9999999999999 135.7142857142856C660.7142857142856 78.5714285714284 582.142857142857 49.9999999999999 503.5714285714284 49.9999999999999V135.7142857142856C567.8571428571428 135.7142857142856 632.1428571428571 164.2857142857142 682.142857142857 207.142857142857C732.142857142857 257.142857142857 753.5714285714284 314.2857142857142 753.5714285714284 385.7142857142856V621.4285714285714C753.5714285714284 685.7142857142858 724.9999999999999 750 682.142857142857 800C632.1428571428571 850 574.9999999999999 871.4285714285714 503.5714285714284 871.4285714285714S375 842.8571428571429 325 800C275 750 253.5714285714285 692.8571428571429 253.5714285714285 621.4285714285714V328.5714285714288H132.1428571428571C103.5714285714284 335.7142857142857 82.142857142857 342.8571428571429 67.8571428571428 357.1428571428571C53.5714285714284 371.4285714285714 46.4285714285713 392.8571428571429 46.4285714285713 414.2857142857144V585.7142857142858C46.4285714285713 607.1428571428571 53.5714285714284 628.5714285714286 67.8571428571428 642.8571428571429C82.142857142857 657.1428571428571 103.5714285714284 664.2857142857142 124.9999999999998 664.2857142857142H167.8571428571428C174.9999999999998 742.8571428571429 217.8571428571428 821.4285714285714 275 871.4285714285714C346.4285714285714 928.5714285714286 425 957.1428571428572 503.5714285714284 957.1428571428572S660.7142857142856 928.5714285714286 724.9999999999999 871.4285714285714C789.2857142857142 814.2857142857142 824.9999999999999 742.8571428571429 832.142857142857 664.2857142857142H874.9999999999999zM325 342.8571428571429L367.8571428571427 414.2857142857144C410.7142857142857 385.7142857142857 453.5714285714284 371.4285714285714 503.5714285714284 371.4285714285714C553.5714285714284 371.4285714285714 596.4285714285713 385.7142857142856 639.2857142857142 407.1428571428571L682.142857142857 335.7142857142857C624.9999999999999 307.1428571428572 567.8571428571428 292.8571428571428 503.5714285714284 292.8571428571428C439.2857142857142 292.8571428571428 382.1428571428571 307.1428571428572 325 342.8571428571429z" />
    <glyph glyph-name="smile"
      unicode="&#xEA24;"
      horiz-adv-x="999.3156176062258" d="M452.9242681996831 998.8854343872822C283.1974345437125 982.4602569367044 131.4600809526602 879.6073600438004 54.6137150231711 728.6521577599187C27.4339570990007 675.2703310455408 11.3998553020081 623.8438825990888 2.6006530963414 561.8583915058368C-1.3101034395105 534.4830957548738 -0.7234899591327 463.30732680237 3.773880057097 432.8034258227255A501.30032654817063 501.30032654817063 0 0 1 52.0717232748674 277.5463913494066A500.5768365890381 500.5768365890381 0 0 1 773.410766312743 81.4219510764357C831.4855008701431 119.3562894741987 886.6271680256543 175.6711835904655 924.1704307698323 235.505758588999C938.6402299524842 258.1881464969399 960.1493908996692 302.3796953520658 969.9262822392988 328.9728397958585C979.8987114057214 355.9570598932364 991.4354431864842 402.4950626698735 995.5417375491286 432.8034258227255C1000.0391075653584 463.5028646291626 1000.6257210457364 534.6786335816664 996.7149645098845 561.8583915058368C985.1782327291216 643.0065896247629 959.3672395924992 712.2269803093409 916.5444555249214 776.7544631508965A460.3547056178018 460.3547056178018 0 0 1 854.9500400852544 852.0365264660448C776.9304471950097 930.8382706634598 679.9436851058837 979.7227273616082 569.0150759664456 996.0892434641482C545.218122445787 999.6675856944526 477.953110029135 1001.2318883087934 452.9242681996831 998.8854343872822zM328.1711347060089 736.4736708316225C346.7472282513052 730.8030738546372 366.4965487573571 704.014391584052 374.709137482646 672.9238771240297C380.5752722864238 651.4147161768444 380.5752722864238 610.9383860307778 374.9046753094385 590.2113763907628C366.3010109305644 558.3387106235701 352.8089008818756 537.6117009835552 335.2104964705422 528.8124987778885C316.6344029252458 519.6222209186367 300.9913767818384 522.7508261473183 284.5661993312605 539.3715414246886C272.833929723705 551.1038110322443 263.4481140376605 568.1156019631999 257.7775170606754 588.4515359496295C252.8890713908605 606.0499403609629 252.8890713908605 654.3477835787334 257.7775170606754 672.3372636436519C266.9677949199272 706.1653076787704 283.392972370505 728.8476955867113 303.9244441837273 736.0825951780372C312.8605228681489 739.4067382335113 318.3942433663792 739.4067382335113 328.1711347060089 736.4736708316224zM703.9948378013725 731.9763008153927C719.63786394478 722.9815607829335 733.9121253006392 700.4947107017854 741.3425627187578 673.3149527776148C746.2310083885726 655.3254727126964 747.2086975225355 617.7822099685184 743.2979409866837 598.6195029428443C724.1352339610096 503.9791947752293 649.0487084726539 497.917522144659 624.6064801235798 589.2336872567998C621.2823370681057 601.5525703447332 620.3046479341427 610.5473103771925 620.3046479341427 631.2743200172074C620.3046479341427 660.6049940360963 623.8243288164094 678.2033984474297 633.9922958096242 699.125945914237C640.4450440937799 712.8135937897187 660.1943645998317 733.3450656029408 669.7757181126688 736.4736708316224C679.748147279091 739.6022760603039 694.1592851137051 737.8424356191706 703.9361764533347 731.9763008153927zM272.0517784165346 402.2995248430811C309.0084276803347 389.3940282747698 375.8823644434015 376.2929938796662 431.2195694257054 371.0134725562662C467.3940673823349 367.6893295007921 553.0396355174906 368.0804051543772 590.5828982616686 371.9911616902291C644.5513384564242 377.6617586672143 701.0617703994835 388.8074147943921 738.0184196632836 401.5173735359107C762.6561858391503 409.9255000879922 778.1036741557651 406.7968948593108 785.9251872274689 391.7404821962811L789.6404059365282 384.5055826049551L784.3608846131282 363.7785729649402C760.8963453980169 271.0936430652512 677.5972311843723 201.0911010735029 566.9228212197647 181.3417805674509C535.6367689329498 175.6711835904657 482.6460178721571 175.2801079368804 451.94657906572 180.364091433488C385.6592557830311 191.1186719070805 329.7354373203495 218.2984298312509 288.4769558671124 259.7524491112808C257.9730548874679 290.0608122641327 237.8326587278308 324.8665454332143 228.0557673882011 363.1919594845624C222.9717838915937 383.527893470992 222.9717838915937 386.2654230460884 227.8602295614086 394.2824739445847C235.2906669795272 406.601357032518 251.715844430105 409.4757630863691 272.0517784165347 402.2995248430809z" />
    <glyph glyph-name="star-half"
      unicode="&#xEA25;"
      horiz-adv-x="1125" d="M676.865234375 141.015625L426.474609375 7.2265625C405.380859375 -3.90625 379.794921875 -2.1484375 360.458984375 11.71875C341.123046875 25.5859375 331.357421875 49.4140625 335.458984375 72.8515625L383.505859375 359.1796875L179.951171875 558.7890625C163.134765625 575.5859375 157.158203125 600.1953125 164.541015625 622.8515625C171.904296875 645.3125 191.376953125 661.71875 214.794921875 665.0390625L495.224609375 706.4453125L621.0058593749999 964.90234375C631.357421875 986.337890625 653.037109375 999.9744140625 675.107421875 1000.0763671875L676.865234375 141.015625zM960.458984375 0C958.310546875 -0.1953125 956.162109375 -0.1953125 954.013671875 0H960.458984375z" />
    <glyph glyph-name="star"
      unicode="&#xEA26;"
      horiz-adv-x="1125" d="M744.248046875 706.4453125L1024.912109375 665.0390625C1048.154296875 661.71875 1067.685546875 645.3125 1075.107421875 622.8515625C1082.529296875 600.1953125 1076.474609375 575.5859375 1059.677734375 558.7890625L856.162109375 359.1796875L904.208984375 72.8515625C908.115234375 49.4140625 898.544921875 25.5859375 879.013671875 11.71875C859.677734375 -2.1484375 834.091796875 -3.90625 813.193359375 7.2265625L562.412109375 141.015625L311.826171875 7.2265625C290.732421875 -3.90625 265.146484375 -2.1484375 245.810546875 11.71875C226.474609375 25.5859375 216.708984375 49.4140625 220.810546875 72.8515625L268.857421875 359.1796875L65.302734375 558.7890625C48.486328125 575.5859375 42.509765625 600.1953125 49.892578125 622.8515625C57.255859375 645.3125 76.728515625 661.71875 100.146484375 665.0390625L380.576171875 706.4453125L506.3574218749999 964.90234375C516.708984375 986.41796875 538.583984375 1000.0763671875 562.412109375 1000.0763671875C586.435546875 1000.0763671875 608.310546875 986.41796875 618.662109375 964.90234375L744.248046875 706.4453125z" />
    <glyph glyph-name="telegram"
      unicode="&#xEA27;"
      horiz-adv-x="1187.5" d="M840.625 668.75C878.125 706.25 909.375 781.25 765.625 687.5C559.375 543.75 359.375 412.5 359.375 412.5C340.625 406.25 315.625 400 296.875 400C271.875 400 246.875 400 228.125 412.5C140.625 437.5 40.625 475 40.625 475S-28.125 512.5 90.625 562.5C90.625 562.5 590.625 768.75 759.3749999999999 837.5C828.1249999999999 868.75 1046.875 956.25 1046.875 956.25S1153.125 1000 1146.875 900C1146.875 862.5 1121.875 718.75 1096.875 568.75C1059.3749999999998 350 1021.875 118.7499999999999 1021.875 118.7499999999999S1015.625 49.9999999999999 965.6250000000002 43.75C915.625 43.75 865.6250000000002 62.5 821.875 93.75C809.3750000000001 100 603.125 231.25 534.3750000000001 293.75C528.125 293.75 521.875 300 515.625 312.5C509.375 318.75 509.375 331.25 509.375 337.5C509.375 343.75 509.375 356.2500000000001 515.625 362.5C521.875 368.75 534.375 375 540.625 381.25C640.625 475 765.625 593.75 840.625 668.75z" />
    <glyph glyph-name="twitter"
      unicode="&#xEA28;"
      horiz-adv-x="1000" d="M897.2089843749999 703.6796875C897.8437499999999 694.796875 897.8437499999999 685.912109375 897.8437499999999 677.029296875C897.8437499999999 406.091796875 691.6269531249998 93.908203125 314.7226562499999 93.908203125C198.6054687499999 93.908203125 90.7382812499999 127.5390625 0.0019531249999 185.912109375C16.4999999999999 184.009765625 32.3613281249999 183.3750000000001 49.4941406249999 183.3750000000001C145.3046874999999 183.3750000000001 233.5039062499999 215.734375 303.9355468749999 270.9375C213.8339843749999 272.8417968750001 138.3261718749999 331.8515625 112.3105468749999 413.0703125C125.0019531249999 411.16796875 137.6914062499999 409.8984375 151.0175781249999 409.8984375C169.4179687499999 409.8984375 187.8203124999999 412.4375 204.9511718749999 416.876953125C111.0429687499999 435.9140625 40.6093749999999 518.400390625 40.6093749999999 618.01953125V620.556640625C67.8925781249999 605.328125 99.6210937499999 595.810546875 133.2480468749999 594.54296875C78.0449218749999 631.345703125 41.8789062499999 694.162109375 41.8789062499999 765.228515625C41.8789062499999 803.298828125 52.0292968749999 838.197265625 69.7968749999999 868.654296875C170.6855468749999 744.2890625 322.3359375 663.072265625 492.384765625 654.1875C489.212890625 669.416015625 487.30859375 685.27734375 487.30859375 701.140625C487.30859375 814.0859375 578.6796874999999 906.08984375 692.2578125 906.08984375C751.267578125 906.08984375 804.56640625 881.34375 842.00390625 841.369140625C888.322265625 850.251953125 932.7382812500002 867.384765625 972.0800781250002 890.861328125C956.8496093750002 843.271484375 924.4902343750002 803.296875 881.978515625 777.91796875C923.2226562500002 782.357421875 963.1972656250002 793.78125 999.9980468750002 809.642578125C972.0839843750002 769.03515625 937.1835937500002 732.869140625 897.208984375 703.6796875z" />
    <glyph glyph-name="youtube"
      unicode="&#xEA29;"
      horiz-adv-x="1125" d="M1073.544921875 757.650390625C1061.27734375 803.841796875 1025.1328124999998 840.220703125 979.240234375 852.56640625C896.056640625 875 562.5 875 562.5 875S228.9453125 875 145.759765625 852.56640625C99.8671875 840.21875 63.72265625 803.841796875 51.455078125 757.650390625C29.166015625 673.92578125 29.166015625 499.2421874999999 29.166015625 499.2421874999999S29.166015625 324.55859375 51.455078125 240.8339843749999C63.72265625 194.642578125 99.8671875 159.7792968749999 145.759765625 147.43359375C228.9453125 125 562.5 125 562.5 125S896.0546875 125 979.240234375 147.43359375C1025.1328124999998 159.779296875 1061.27734375 194.642578125 1073.544921875 240.833984375C1095.833984375 324.5585937500001 1095.833984375 499.2421875000001 1095.833984375 499.2421875000001S1095.833984375 673.92578125 1073.544921875 757.650390625zM453.4082031249999 340.642578125V657.841796875L732.1953125 499.23828125L453.408203125 340.642578125z" />
  </font>
</defs>
</svg>
